#N canvas 94 206 598 533 10;
#X obj 27 33 unpack f f;
#X obj 27 117 mtof;
#X obj 12 372 *~;
#X obj 12 430 outlet~;
#X obj 27 12 inlet;
#X obj 352 309 t b b;
#X obj 412 309 t b b;
#X obj 198 146 t b b;
#X obj 258 146 t b b;
#X obj 12 141 sig~ 2;
#X obj 12 162 pow~;
#X obj 12 183 *~;
#X obj 127 78 t b b;
#X obj 187 78 t b b;
#X obj 127 146 *~ 2;
#X obj 198 193 curve~;
#X obj 127 125 curve~;
#X obj 352 356 curve~;
#X obj 272 314 pack f \$1;
#X obj 12 351 tabread4~;
#X obj 198 282 samphold~;
#X obj 198 256 *~ 259;
#X obj 12 277 *~ 256;
#X obj 12 298 +~;
#X obj 12 325 +~ 1;
#X obj 198 214 *~ 127;
#X obj 12 245 phasor~;
#X obj 198 235 tabread~ \$1-steps;
#X obj 272 294 + 1;
#X msg 272 335 set \$2-\$1;
#X obj 320 49 t f f;
#X obj 320 70 > 0;
#X obj 347 70 s \$0-vel;
#X obj 320 133 s \$0-non;
#X obj 339 112 s \$0-nof;
#X obj 127 57 r \$0-non;
#X obj 187 57 r \$0-nof;
#X obj 198 125 r \$0-non;
#X obj 258 125 r \$0-nof;
#X obj 352 288 r \$0-non;
#X obj 412 288 r \$0-nof;
#X obj 320 91 sel 1 0;
#X obj 127 99 on \$1 \$2 1;
#X obj 187 99 off \$1 \$2 1;
#X obj 198 167 on \$1 \$2 2;
#X obj 258 167 off \$1 \$2 2;
#X obj 352 330 on \$1 \$2 3;
#X obj 412 330 off \$1 \$2 3;
#X obj 108 451 r \$0-non;
#X msg 108 472 1;
#X obj 108 493 switch~;
#X obj 68 409 env~;
#X obj 68 430 change;
#X obj 68 451 sel 0;
#X msg 68 472 0;
#X obj 272 273 r \$1-wav-\$2;
#X obj 27 96 +;
#X obj 37 54 r \$1-tun-\$2;
#X obj 37 75 t b f;
#X obj 12 393 *~;
#X obj 80 293 r \$1-vol-\$2;
#X obj 80 314 + 100;
#X obj 80 335 dbtorms;
#X msg 80 356 \$1 20;
#X obj 80 377 line~;
#X connect 0 0 56 0;
#X connect 0 1 30 0;
#X connect 1 0 11 1;
#X connect 2 0 59 0;
#X connect 4 0 0 0;
#X connect 5 0 46 0;
#X connect 5 1 17 1;
#X connect 6 0 47 0;
#X connect 6 1 17 1;
#X connect 7 0 44 0;
#X connect 7 1 15 1;
#X connect 8 0 45 0;
#X connect 8 1 15 1;
#X connect 9 0 10 0;
#X connect 10 0 11 0;
#X connect 11 0 26 0;
#X connect 12 0 42 0;
#X connect 12 1 16 1;
#X connect 13 0 43 0;
#X connect 13 1 16 1;
#X connect 14 0 10 1;
#X connect 15 0 25 0;
#X connect 16 0 14 0;
#X connect 17 0 2 1;
#X connect 18 0 29 0;
#X connect 19 0 2 0;
#X connect 20 0 23 1;
#X connect 21 0 20 0;
#X connect 22 0 23 0;
#X connect 23 0 24 0;
#X connect 24 0 19 0;
#X connect 25 0 27 0;
#X connect 26 0 20 1;
#X connect 26 0 22 0;
#X connect 27 0 21 0;
#X connect 28 0 18 0;
#X connect 29 0 19 0;
#X connect 30 0 31 0;
#X connect 30 1 32 0;
#X connect 31 0 41 0;
#X connect 35 0 12 0;
#X connect 36 0 13 0;
#X connect 37 0 7 0;
#X connect 38 0 8 0;
#X connect 39 0 5 0;
#X connect 40 0 6 0;
#X connect 41 0 33 0;
#X connect 41 1 34 0;
#X connect 42 0 16 0;
#X connect 43 0 16 0;
#X connect 44 0 15 0;
#X connect 45 0 15 0;
#X connect 46 0 17 0;
#X connect 47 0 17 0;
#X connect 48 0 49 0;
#X connect 49 0 50 0;
#X connect 51 0 52 0;
#X connect 52 0 53 0;
#X connect 53 0 54 0;
#X connect 54 0 50 0;
#X connect 55 0 28 0;
#X connect 56 0 1 0;
#X connect 57 0 58 0;
#X connect 58 0 56 0;
#X connect 58 1 56 1;
#X connect 59 0 51 0;
#X connect 59 0 3 0;
#X connect 60 0 61 0;
#X connect 61 0 62 0;
#X connect 62 0 63 0;
#X connect 63 0 64 0;
#X connect 64 0 59 1;
