#N canvas 422 199 820 375 10;
#X obj 12 33 pack f 1;
#X obj 12 54 tabwrite;
#X obj 102 54 tabwrite;
#X obj 192 54 tabwrite;
#X obj 282 54 tabwrite;
#X obj 12 114 tabwrite;
#X obj 102 114 tabwrite;
#X obj 192 114 tabwrite;
#X obj 282 114 tabwrite;
#X obj 102 33 pack f 2;
#X obj 192 33 pack f 3;
#X obj 282 33 pack f 4;
#X obj 12 93 pack f 5;
#X obj 102 93 pack f 6;
#X obj 192 93 pack f 7;
#X obj 282 93 pack f 8;
#X msg 602 54 8;
#X obj 602 75 until;
#X obj 602 96 i;
#X obj 602 117 % 8;
#X obj 632 96 + 1;
#X obj 602 138 + 1;
#X obj 602 159 t f f;
#X obj 602 180 tabread;
#X obj 602 33 t b f;
#X obj 602 222 s;
#X msg 602 201 set \$1;
#X obj 12 12 r \$1-s-\$2-\$3-1;
#X obj 102 12 r \$1-s-\$2-\$3-2;
#X obj 192 12 r \$1-s-\$2-\$3-3;
#X obj 282 12 r \$1-s-\$2-\$3-4;
#X obj 12 72 r \$1-s-\$2-\$3-5;
#X obj 102 72 r \$1-s-\$2-\$3-6;
#X obj 192 72 r \$1-s-\$2-\$3-7;
#X obj 282 72 r \$1-s-\$2-\$3-8;
#X obj 12 144 r \$1-s-\$2-\$3-1;
#X obj 12 228 s;
#X msg 27 207 symbol \$2-\$3-\$1-\$4-1;
#X obj 162 228 s;
#X obj 302 228 s;
#X obj 452 228 s;
#X obj 12 338 s;
#X obj 162 338 s;
#X obj 302 338 s;
#X obj 452 338 s;
#X obj 162 144 r \$1-s-\$2-\$3-2;
#X msg 177 207 symbol \$2-\$3-\$1-\$4-2;
#X msg 317 207 symbol \$2-\$3-\$1-\$4-3;
#X obj 302 144 r \$1-s-\$2-\$3-3;
#X obj 452 144 r \$1-s-\$2-\$3-4;
#X msg 467 207 symbol \$2-\$3-\$1-\$4-4;
#X obj 12 254 r \$1-s-\$2-\$3-5;
#X msg 27 317 symbol \$2-\$3-\$1-\$4-5;
#X obj 162 254 r \$1-s-\$2-\$3-6;
#X msg 177 317 symbol \$2-\$3-\$1-\$4-6;
#X obj 302 254 r \$1-s-\$2-\$3-7;
#X msg 317 317 symbol \$2-\$3-\$1-\$4-7;
#X obj 452 254 r \$1-s-\$2-\$3-8;
#X msg 467 317 symbol \$2-\$3-\$1-\$4-8;
#X obj 467 186 list \$1 \$2 \$3;
#X obj 317 186 list \$1 \$2 \$3;
#X obj 177 186 list \$1 \$2 \$3;
#X obj 27 186 list \$1 \$2 \$3;
#X obj 27 296 list \$1 \$2 \$3;
#X obj 177 296 list \$1 \$2 \$3;
#X obj 317 296 list \$1 \$2 \$3;
#X obj 467 296 list \$1 \$2 \$3;
#X obj 602 12 r \$1-lin;
#X obj 467 165 r \$1-lin;
#X obj 317 165 r \$1-lin;
#X obj 177 165 r \$1-lin;
#X obj 27 165 r \$1-lin;
#X obj 27 275 r \$1-lin;
#X obj 177 275 r \$1-lin;
#X obj 317 275 r \$1-lin;
#X obj 467 275 r \$1-lin;
#X obj 664 91 s \$0-\$2-1;
#X obj 652 159 r \$0-\$2-1;
#X obj 344 98 r \$0-\$2-1;
#X obj 344 38 r \$0-\$2-1;
#X obj 677 185 list \$1 \$2 \$3;
#X msg 677 206 symbol \$2-r-\$3-\$4-\$1;
#X obj 664 49 list \$1 \$2 \$3;
#X msg 664 70 set \$2-\$3-\$4-\$1;
#X connect 0 0 1 0;
#X connect 9 0 2 0;
#X connect 10 0 3 0;
#X connect 11 0 4 0;
#X connect 12 0 5 0;
#X connect 13 0 6 0;
#X connect 14 0 7 0;
#X connect 15 0 8 0;
#X connect 16 0 17 0;
#X connect 17 0 18 0;
#X connect 18 0 19 0;
#X connect 19 0 20 0;
#X connect 19 0 21 0;
#X connect 20 0 18 1;
#X connect 21 0 22 0;
#X connect 22 0 23 0;
#X connect 22 1 80 0;
#X connect 23 0 26 0;
#X connect 24 0 16 0;
#X connect 24 1 82 0;
#X connect 26 0 25 0;
#X connect 27 0 0 0;
#X connect 28 0 9 0;
#X connect 29 0 10 0;
#X connect 30 0 11 0;
#X connect 31 0 12 0;
#X connect 32 0 13 0;
#X connect 33 0 14 0;
#X connect 34 0 15 0;
#X connect 35 0 36 0;
#X connect 37 0 36 1;
#X connect 45 0 38 0;
#X connect 46 0 38 1;
#X connect 47 0 39 1;
#X connect 48 0 39 0;
#X connect 49 0 40 0;
#X connect 50 0 40 1;
#X connect 51 0 41 0;
#X connect 52 0 41 1;
#X connect 53 0 42 0;
#X connect 54 0 42 1;
#X connect 55 0 43 0;
#X connect 56 0 43 1;
#X connect 57 0 44 0;
#X connect 58 0 44 1;
#X connect 59 0 50 0;
#X connect 60 0 47 0;
#X connect 61 0 46 0;
#X connect 62 0 37 0;
#X connect 63 0 52 0;
#X connect 64 0 54 0;
#X connect 65 0 56 0;
#X connect 66 0 58 0;
#X connect 67 0 24 0;
#X connect 68 0 59 0;
#X connect 69 0 60 0;
#X connect 70 0 61 0;
#X connect 71 0 62 0;
#X connect 72 0 63 0;
#X connect 73 0 64 0;
#X connect 74 0 65 0;
#X connect 75 0 66 0;
#X connect 77 0 23 0;
#X connect 78 0 8 0;
#X connect 78 0 7 0;
#X connect 78 0 6 0;
#X connect 78 0 5 0;
#X connect 79 0 4 0;
#X connect 79 0 3 0;
#X connect 79 0 2 0;
#X connect 79 0 1 0;
#X connect 80 0 81 0;
#X connect 81 0 25 1;
#X connect 82 0 83 0;
#X connect 83 0 76 0;
