#N canvas 4 23 283 144 10;
#X obj 12 106 outlet;
#X msg 12 80 \$2 \$3 -3;
#N canvas 4 23 1276 465 on 0;
#X obj 123 201 spigot;
#X obj 156 180 *;
#X obj 199 156 t b f;
#X obj 123 348 pack f f f;
#X obj 215 243 *;
#X obj 243 156 t b f;
#X obj 199 114 t f f;
#X obj 156 93 >= 7;
#X obj 199 135 >= 7;
#X obj 243 135 != 7;
#X obj 189 264 r \$1-nbx-\$2-\$3-7;
#X obj 188 180 r \$1-vsl-\$2-\$3-7;
#X obj 156 72 r \$1-susnbx-\$2-\$3;
#X obj 199 93 r \$1-endnbx-\$2-\$3;
#X obj 189 306 t b f;
#X obj 188 201 t b f;
#X obj 293 201 spigot;
#X obj 326 180 *;
#X obj 369 156 t b f;
#X obj 293 348 pack f f f;
#X obj 385 243 *;
#X obj 413 156 t b f;
#X obj 369 114 t f f;
#X obj 326 72 r \$1-susnbx-\$2-\$3;
#X obj 369 93 r \$1-endnbx-\$2-\$3;
#X obj 359 306 t b f;
#X obj 358 201 t b f;
#X obj 463 201 spigot;
#X obj 496 180 *;
#X obj 539 156 t b f;
#X obj 463 348 pack f f f;
#X obj 555 243 *;
#X obj 583 156 t b f;
#X obj 539 114 t f f;
#X obj 496 72 r \$1-susnbx-\$2-\$3;
#X obj 539 93 r \$1-endnbx-\$2-\$3;
#X obj 529 306 t b f;
#X obj 528 201 t b f;
#X obj 633 201 spigot;
#X obj 666 180 *;
#X obj 709 156 t b f;
#X obj 633 348 pack f f f;
#X obj 725 243 *;
#X obj 753 156 t b f;
#X obj 709 114 t f f;
#X obj 666 72 r \$1-susnbx-\$2-\$3;
#X obj 709 93 r \$1-endnbx-\$2-\$3;
#X obj 699 306 t b f;
#X obj 698 201 t b f;
#X obj 803 201 spigot;
#X obj 836 180 *;
#X obj 879 156 t b f;
#X obj 803 348 pack f f f;
#X obj 895 243 *;
#X obj 923 156 t b f;
#X obj 879 114 t f f;
#X obj 836 72 r \$1-susnbx-\$2-\$3;
#X obj 879 93 r \$1-endnbx-\$2-\$3;
#X obj 869 306 t b f;
#X obj 868 201 t b f;
#X obj 973 201 spigot;
#X obj 1006 180 *;
#X obj 1049 156 t b f;
#X obj 973 348 pack f f f;
#X obj 1065 243 *;
#X obj 1093 156 t b f;
#X obj 1049 114 t f f;
#X obj 1006 72 r \$1-susnbx-\$2-\$3;
#X obj 1049 93 r \$1-endnbx-\$2-\$3;
#X obj 1039 306 t b f;
#X obj 1038 201 t b f;
#X obj 1143 201 spigot;
#X obj 1176 180 *;
#X obj 1219 156 t b f;
#X obj 1143 348 pack f f f;
#X obj 1235 243 *;
#X obj 1263 156 t b f;
#X obj 1219 114 t f f;
#X obj 1176 72 r \$1-susnbx-\$2-\$3;
#X obj 1219 93 r \$1-endnbx-\$2-\$3;
#X obj 1209 306 t b f;
#X obj 1208 201 t b f;
#X obj 326 93 >= 6;
#X obj 369 135 >= 6;
#X obj 413 135 != 6;
#X obj 358 180 r \$1-vsl-\$2-\$3-6;
#X obj 359 264 r \$1-nbx-\$2-\$3-6;
#X obj 529 264 r \$1-nbx-\$2-\$3-5;
#X obj 528 180 r \$1-vsl-\$2-\$3-5;
#X obj 539 135 >= 5;
#X obj 583 135 != 5;
#X obj 496 93 >= 5;
#X obj 666 93 >= 4;
#X obj 709 135 >= 4;
#X obj 753 135 != 4;
#X obj 698 180 r \$1-vsl-\$2-\$3-4;
#X obj 699 264 r \$1-nbx-\$2-\$3-4;
#X obj 869 264 r \$1-nbx-\$2-\$3-3;
#X obj 868 180 r \$1-vsl-\$2-\$3-3;
#X obj 879 135 >= 3;
#X obj 923 135 != 3;
#X obj 836 93 >= 3;
#X obj 1039 264 r \$1-nbx-\$2-\$3-2;
#X obj 1038 180 r \$1-vsl-\$2-\$3-2;
#X obj 1049 135 >= 2;
#X obj 1093 135 != 2;
#X obj 1006 93 >= 2;
#X obj 1176 93 >= 1;
#X obj 1219 135 >= 1;
#X obj 1263 135 != 1;
#X obj 1208 180 r \$1-vsl-\$2-\$3-1;
#X obj 1209 264 r \$1-nbx-\$2-\$3-1;
#X obj 12 185 t b b b b b b b;
#X obj 12 164 inlet;
#X obj 123 369 outlet;
#X obj 189 327 s \$1-upd-\$2-\$3;
#X obj 188 222 s \$1-upd-\$2-\$3;
#X obj 359 327 s \$1-upd-\$2-\$3;
#X obj 358 222 s \$1-upd-\$2-\$3;
#X obj 529 327 s \$1-upd-\$2-\$3;
#X obj 528 222 s \$1-upd-\$2-\$3;
#X obj 699 327 s \$1-upd-\$2-\$3;
#X obj 698 222 s \$1-upd-\$2-\$3;
#X obj 869 327 s \$1-upd-\$2-\$3;
#X obj 868 222 s \$1-upd-\$2-\$3;
#X obj 1039 327 s \$1-upd-\$2-\$3;
#X obj 1038 222 s \$1-upd-\$2-\$3;
#X obj 1209 327 s \$1-upd-\$2-\$3;
#X obj 1208 222 s \$1-upd-\$2-\$3;
#X obj 189 285 / 220;
#X obj 359 285 / 220;
#X obj 529 285 / 220;
#X obj 699 285 / 220;
#X obj 869 285 / 220;
#X obj 1039 285 / 220;
#X obj 1209 285 / 220;
#X connect 0 0 3 0;
#X connect 1 0 0 1;
#X connect 2 0 1 0;
#X connect 2 1 1 1;
#X connect 3 0 114 0;
#X connect 4 0 3 1;
#X connect 5 0 4 0;
#X connect 5 1 4 1;
#X connect 6 0 8 0;
#X connect 6 1 9 0;
#X connect 7 0 1 0;
#X connect 8 0 2 0;
#X connect 9 0 5 0;
#X connect 10 0 129 0;
#X connect 11 0 15 0;
#X connect 12 0 7 0;
#X connect 13 0 6 0;
#X connect 14 0 115 0;
#X connect 14 1 3 2;
#X connect 15 0 116 0;
#X connect 15 1 4 0;
#X connect 16 0 19 0;
#X connect 17 0 16 1;
#X connect 18 0 17 0;
#X connect 18 1 17 1;
#X connect 19 0 114 0;
#X connect 20 0 19 1;
#X connect 21 0 20 0;
#X connect 21 1 20 1;
#X connect 22 0 83 0;
#X connect 22 1 84 0;
#X connect 23 0 82 0;
#X connect 24 0 22 0;
#X connect 25 0 117 0;
#X connect 25 1 19 2;
#X connect 26 0 118 0;
#X connect 26 1 20 0;
#X connect 27 0 30 0;
#X connect 28 0 27 1;
#X connect 29 0 28 0;
#X connect 29 1 28 1;
#X connect 30 0 114 0;
#X connect 31 0 30 1;
#X connect 32 0 31 0;
#X connect 32 1 31 1;
#X connect 33 0 89 0;
#X connect 33 1 90 0;
#X connect 34 0 91 0;
#X connect 35 0 33 0;
#X connect 36 0 119 0;
#X connect 36 1 30 2;
#X connect 37 0 120 0;
#X connect 37 1 31 0;
#X connect 38 0 41 0;
#X connect 39 0 38 1;
#X connect 40 0 39 0;
#X connect 40 1 39 1;
#X connect 41 0 114 0;
#X connect 42 0 41 1;
#X connect 43 0 42 0;
#X connect 43 1 42 1;
#X connect 44 0 93 0;
#X connect 44 1 94 0;
#X connect 45 0 92 0;
#X connect 46 0 44 0;
#X connect 47 0 121 0;
#X connect 47 1 41 2;
#X connect 48 0 122 0;
#X connect 48 1 42 0;
#X connect 49 0 52 0;
#X connect 50 0 49 1;
#X connect 51 0 50 0;
#X connect 51 1 50 1;
#X connect 52 0 114 0;
#X connect 53 0 52 1;
#X connect 54 0 53 0;
#X connect 54 1 53 1;
#X connect 55 0 99 0;
#X connect 55 1 100 0;
#X connect 56 0 101 0;
#X connect 57 0 55 0;
#X connect 58 0 123 0;
#X connect 58 1 52 2;
#X connect 59 0 124 0;
#X connect 59 1 53 0;
#X connect 60 0 63 0;
#X connect 61 0 60 1;
#X connect 62 0 61 0;
#X connect 62 1 61 1;
#X connect 63 0 114 0;
#X connect 64 0 63 1;
#X connect 65 0 64 0;
#X connect 65 1 64 1;
#X connect 66 0 104 0;
#X connect 66 1 105 0;
#X connect 67 0 106 0;
#X connect 68 0 66 0;
#X connect 69 0 125 0;
#X connect 69 1 63 2;
#X connect 70 0 126 0;
#X connect 70 1 64 0;
#X connect 71 0 74 0;
#X connect 72 0 71 1;
#X connect 73 0 72 0;
#X connect 73 1 72 1;
#X connect 74 0 114 0;
#X connect 75 0 74 1;
#X connect 76 0 75 0;
#X connect 76 1 75 1;
#X connect 77 0 108 0;
#X connect 77 1 109 0;
#X connect 78 0 107 0;
#X connect 79 0 77 0;
#X connect 80 0 127 0;
#X connect 80 1 74 2;
#X connect 81 0 128 0;
#X connect 81 1 75 0;
#X connect 82 0 17 0;
#X connect 83 0 18 0;
#X connect 84 0 21 0;
#X connect 85 0 26 0;
#X connect 86 0 130 0;
#X connect 87 0 131 0;
#X connect 88 0 37 0;
#X connect 89 0 29 0;
#X connect 90 0 32 0;
#X connect 91 0 28 0;
#X connect 92 0 39 0;
#X connect 93 0 40 0;
#X connect 94 0 43 0;
#X connect 95 0 48 0;
#X connect 96 0 132 0;
#X connect 97 0 133 0;
#X connect 98 0 59 0;
#X connect 99 0 51 0;
#X connect 100 0 54 0;
#X connect 101 0 50 0;
#X connect 102 0 134 0;
#X connect 103 0 70 0;
#X connect 104 0 62 0;
#X connect 105 0 65 0;
#X connect 106 0 61 0;
#X connect 107 0 72 0;
#X connect 108 0 73 0;
#X connect 109 0 76 0;
#X connect 110 0 81 0;
#X connect 111 0 135 0;
#X connect 112 0 0 0;
#X connect 112 1 16 0;
#X connect 112 2 27 0;
#X connect 112 3 38 0;
#X connect 112 4 49 0;
#X connect 112 5 60 0;
#X connect 112 6 71 0;
#X connect 113 0 112 0;
#X connect 129 0 14 0;
#X connect 130 0 25 0;
#X connect 131 0 36 0;
#X connect 132 0 47 0;
#X connect 133 0 58 0;
#X connect 134 0 69 0;
#X connect 135 0 80 0;
#X restore 62 54 pd on;
#N canvas 4 23 1276 355 off 0;
#X obj 22 104 inlet;
#X obj 133 141 spigot;
#X obj 166 120 *;
#X obj 209 96 t b f;
#X obj 133 286 pack f f f;
#X obj 166 33 t f f;
#X obj 225 181 *;
#X obj 253 96 t b f;
#X obj 253 75 != 8;
#X obj 209 75 < 8;
#X obj 166 54 >= 8;
#X obj 133 307 outlet;
#X obj 198 120 r \$1-vsl-\$2-\$3-8;
#X obj 199 202 r \$1-nbx-\$2-\$3-8;
#X obj 166 12 r \$1-endnbx-\$2-\$3;
#X obj 199 244 t b f;
#X obj 198 141 t b f;
#X obj 209 54 r \$1-susnbx-\$2-\$3;
#X obj 303 141 spigot;
#X obj 336 120 *;
#X obj 379 96 t b f;
#X obj 303 286 pack f f f;
#X obj 336 33 t f f;
#X obj 395 181 *;
#X obj 423 96 t b f;
#X obj 336 12 r \$1-endnbx-\$2-\$3;
#X obj 369 244 t b f;
#X obj 368 141 t b f;
#X obj 379 54 r \$1-susnbx-\$2-\$3;
#X obj 473 141 spigot;
#X obj 506 120 *;
#X obj 549 96 t b f;
#X obj 473 286 pack f f f;
#X obj 506 33 t f f;
#X obj 565 181 *;
#X obj 593 96 t b f;
#X obj 506 12 r \$1-endnbx-\$2-\$3;
#X obj 539 244 t b f;
#X obj 538 141 t b f;
#X obj 549 54 r \$1-susnbx-\$2-\$3;
#X obj 643 141 spigot;
#X obj 676 120 *;
#X obj 719 96 t b f;
#X obj 643 286 pack f f f;
#X obj 676 33 t f f;
#X obj 735 181 *;
#X obj 763 96 t b f;
#X obj 676 12 r \$1-endnbx-\$2-\$3;
#X obj 709 244 t b f;
#X obj 708 141 t b f;
#X obj 719 54 r \$1-susnbx-\$2-\$3;
#X obj 813 141 spigot;
#X obj 846 120 *;
#X obj 889 96 t b f;
#X obj 813 286 pack f f f;
#X obj 846 33 t f f;
#X obj 905 181 *;
#X obj 933 96 t b f;
#X obj 846 12 r \$1-endnbx-\$2-\$3;
#X obj 879 244 t b f;
#X obj 878 141 t b f;
#X obj 889 54 r \$1-susnbx-\$2-\$3;
#X obj 983 141 spigot;
#X obj 1016 120 *;
#X obj 1059 96 t b f;
#X obj 983 286 pack f f f;
#X obj 1016 33 t f f;
#X obj 1075 181 *;
#X obj 1103 96 t b f;
#X obj 1016 12 r \$1-endnbx-\$2-\$3;
#X obj 1049 244 t b f;
#X obj 1048 141 t b f;
#X obj 1059 54 r \$1-susnbx-\$2-\$3;
#X obj 1153 141 spigot;
#X obj 1186 120 *;
#X obj 1229 96 t b f;
#X obj 1153 286 pack f f f;
#X obj 1186 33 t f f;
#X obj 1245 181 *;
#X obj 1273 96 t b f;
#X obj 1186 12 r \$1-endnbx-\$2-\$3;
#X obj 1219 244 t b f;
#X obj 1218 141 t b f;
#X obj 1229 54 r \$1-susnbx-\$2-\$3;
#X obj 336 54 >= 7;
#X obj 379 75 < 7;
#X obj 423 75 != 7;
#X obj 368 120 r \$1-vsl-\$2-\$3-7;
#X obj 369 202 r \$1-nbx-\$2-\$3-7;
#X obj 539 202 r \$1-nbx-\$2-\$3-6;
#X obj 538 120 r \$1-vsl-\$2-\$3-6;
#X obj 506 54 >= 6;
#X obj 549 75 < 6;
#X obj 593 75 != 6;
#X obj 676 54 >= 5;
#X obj 719 75 < 5;
#X obj 763 75 != 5;
#X obj 708 120 r \$1-vsl-\$2-\$3-5;
#X obj 709 202 r \$1-nbx-\$2-\$3-5;
#X obj 846 54 >= 4;
#X obj 889 75 < 4;
#X obj 933 75 != 4;
#X obj 878 120 r \$1-vsl-\$2-\$3-4;
#X obj 879 202 r \$1-nbx-\$2-\$3-4;
#X obj 1016 54 >= 3;
#X obj 1059 75 < 3;
#X obj 1103 75 != 3;
#X obj 1048 120 r \$1-vsl-\$2-\$3-3;
#X obj 1049 202 r \$1-nbx-\$2-\$3-3;
#X obj 1219 202 r \$1-nbx-\$2-\$3-2;
#X obj 1218 120 r \$1-vsl-\$2-\$3-2;
#X obj 1273 75 != 2;
#X obj 1229 75 < 2;
#X obj 1186 54 >= 2;
#X obj 22 125 t b b b b b b b;
#X obj 199 265 s \$1-upd-\$2-\$3;
#X obj 198 162 s \$1-upd-\$2-\$3;
#X obj 368 162 s \$1-upd-\$2-\$3;
#X obj 369 265 s \$1-upd-\$2-\$3;
#X obj 539 265 s \$1-upd-\$2-\$3;
#X obj 538 162 s \$1-upd-\$2-\$3;
#X obj 709 265 s \$1-upd-\$2-\$3;
#X obj 708 162 s \$1-upd-\$2-\$3;
#X obj 879 265 s \$1-upd-\$2-\$3;
#X obj 878 162 s \$1-upd-\$2-\$3;
#X obj 1049 265 s \$1-upd-\$2-\$3;
#X obj 1048 162 s \$1-upd-\$2-\$3;
#X obj 1219 265 s \$1-upd-\$2-\$3;
#X obj 1218 162 s \$1-upd-\$2-\$3;
#X obj 199 223 / 220;
#X obj 369 223 / 220;
#X obj 539 223 / 220;
#X obj 709 223 / 220;
#X obj 879 223 / 220;
#X obj 1049 223 / 220;
#X obj 1219 223 / 220;
#X connect 0 0 114 0;
#X connect 1 0 4 0;
#X connect 2 0 1 1;
#X connect 3 0 2 0;
#X connect 3 1 2 1;
#X connect 4 0 11 0;
#X connect 5 0 10 0;
#X connect 5 1 8 0;
#X connect 6 0 4 1;
#X connect 7 0 6 0;
#X connect 7 1 6 1;
#X connect 8 0 7 0;
#X connect 9 0 3 0;
#X connect 10 0 2 0;
#X connect 12 0 16 0;
#X connect 13 0 129 0;
#X connect 14 0 5 0;
#X connect 15 0 115 0;
#X connect 15 1 4 2;
#X connect 16 0 116 0;
#X connect 16 1 6 0;
#X connect 17 0 9 0;
#X connect 18 0 21 0;
#X connect 19 0 18 1;
#X connect 20 0 19 0;
#X connect 20 1 19 1;
#X connect 21 0 11 0;
#X connect 22 0 84 0;
#X connect 22 1 86 0;
#X connect 23 0 21 1;
#X connect 24 0 23 0;
#X connect 24 1 23 1;
#X connect 25 0 22 0;
#X connect 26 0 118 0;
#X connect 26 1 21 2;
#X connect 27 0 117 0;
#X connect 27 1 23 0;
#X connect 28 0 85 0;
#X connect 29 0 32 0;
#X connect 30 0 29 1;
#X connect 31 0 30 0;
#X connect 31 1 30 1;
#X connect 32 0 11 0;
#X connect 33 0 91 0;
#X connect 33 1 93 0;
#X connect 34 0 32 1;
#X connect 35 0 34 0;
#X connect 35 1 34 1;
#X connect 36 0 33 0;
#X connect 37 0 119 0;
#X connect 37 1 32 2;
#X connect 38 0 120 0;
#X connect 38 1 34 0;
#X connect 39 0 92 0;
#X connect 40 0 43 0;
#X connect 41 0 40 1;
#X connect 42 0 41 0;
#X connect 42 1 41 1;
#X connect 43 0 11 0;
#X connect 44 0 94 0;
#X connect 44 1 96 0;
#X connect 45 0 43 1;
#X connect 46 0 45 0;
#X connect 46 1 45 1;
#X connect 47 0 44 0;
#X connect 48 0 121 0;
#X connect 48 1 43 2;
#X connect 49 0 122 0;
#X connect 49 1 45 0;
#X connect 50 0 95 0;
#X connect 51 0 54 0;
#X connect 52 0 51 1;
#X connect 53 0 52 0;
#X connect 53 1 52 1;
#X connect 54 0 11 0;
#X connect 55 0 99 0;
#X connect 55 1 101 0;
#X connect 56 0 54 1;
#X connect 57 0 56 0;
#X connect 57 1 56 1;
#X connect 58 0 55 0;
#X connect 59 0 123 0;
#X connect 59 1 54 2;
#X connect 60 0 124 0;
#X connect 60 1 56 0;
#X connect 61 0 100 0;
#X connect 62 0 65 0;
#X connect 63 0 62 1;
#X connect 64 0 63 0;
#X connect 64 1 63 1;
#X connect 65 0 11 0;
#X connect 66 0 104 0;
#X connect 66 1 106 0;
#X connect 67 0 65 1;
#X connect 68 0 67 0;
#X connect 68 1 67 1;
#X connect 69 0 66 0;
#X connect 70 0 125 0;
#X connect 70 1 65 2;
#X connect 71 0 126 0;
#X connect 71 1 67 0;
#X connect 72 0 105 0;
#X connect 73 0 76 0;
#X connect 74 0 73 1;
#X connect 75 0 74 0;
#X connect 75 1 74 1;
#X connect 76 0 11 0;
#X connect 77 0 113 0;
#X connect 77 1 111 0;
#X connect 78 0 76 1;
#X connect 79 0 78 0;
#X connect 79 1 78 1;
#X connect 80 0 77 0;
#X connect 81 0 127 0;
#X connect 81 1 76 2;
#X connect 82 0 128 0;
#X connect 82 1 78 0;
#X connect 83 0 112 0;
#X connect 84 0 19 0;
#X connect 85 0 20 0;
#X connect 86 0 24 0;
#X connect 87 0 27 0;
#X connect 88 0 130 0;
#X connect 89 0 131 0;
#X connect 90 0 38 0;
#X connect 91 0 30 0;
#X connect 92 0 31 0;
#X connect 93 0 35 0;
#X connect 94 0 41 0;
#X connect 95 0 42 0;
#X connect 96 0 46 0;
#X connect 97 0 49 0;
#X connect 98 0 132 0;
#X connect 99 0 52 0;
#X connect 100 0 53 0;
#X connect 101 0 57 0;
#X connect 102 0 60 0;
#X connect 103 0 133 0;
#X connect 104 0 63 0;
#X connect 105 0 64 0;
#X connect 106 0 68 0;
#X connect 107 0 71 0;
#X connect 108 0 134 0;
#X connect 109 0 135 0;
#X connect 110 0 82 0;
#X connect 111 0 79 0;
#X connect 112 0 75 0;
#X connect 113 0 74 0;
#X connect 114 0 1 0;
#X connect 114 1 18 0;
#X connect 114 2 29 0;
#X connect 114 3 40 0;
#X connect 114 4 51 0;
#X connect 114 5 62 0;
#X connect 114 6 73 0;
#X connect 129 0 15 0;
#X connect 130 0 26 0;
#X connect 131 0 37 0;
#X connect 132 0 48 0;
#X connect 133 0 59 0;
#X connect 134 0 70 0;
#X connect 135 0 81 0;
#X restore 12 54 pd off;
#X obj 12 33 t b b;
#X obj 12 12 inlet;
#X connect 1 0 0 0;
#X connect 2 0 1 0;
#X connect 3 0 1 0;
#X connect 4 0 3 0;
#X connect 4 1 2 0;
#X connect 5 0 4 0;
