#N canvas 4 23 1276 428 10;
#X obj 12 106 inlet;
#X obj 1153 141 spigot;
#X obj 1186 120 *;
#X obj 1229 96 t b f;
#X obj 1153 183 pack f f f;
#X obj 1218 141 *;
#X obj 1273 96 t b f;
#X msg 232 241 0;
#X obj 133 225 unpack f f;
#X obj 217 335 +;
#X obj 247 335 f;
#X obj 190 246 t f f;
#X obj 217 314 f;
#X obj 217 267 t f b;
#X obj 12 127 t b b b b b b b b;
#X msg 133 204 \$2 \$3;
#X obj 133 380 outlet;
#X obj 1186 33 >= 1;
#X obj 1229 54 t f f;
#X obj 1229 75 >= 1;
#X obj 1273 75 != 1;
#X obj 983 141 spigot;
#X obj 1016 120 *;
#X obj 1059 96 t b f;
#X obj 983 183 pack f f f;
#X obj 1048 141 *;
#X obj 1103 96 t b f;
#X obj 1059 54 t f f;
#X obj 813 141 spigot;
#X obj 846 120 *;
#X obj 889 96 t b f;
#X obj 813 183 pack f f f;
#X obj 878 141 *;
#X obj 933 96 t b f;
#X obj 889 54 t f f;
#X obj 1016 33 >= 2;
#X obj 1059 75 >= 2;
#X obj 1103 75 != 2;
#X obj 889 75 >= 3;
#X obj 933 75 != 3;
#X obj 846 33 >= 3;
#X obj 643 141 spigot;
#X obj 676 120 *;
#X obj 719 96 t b f;
#X obj 643 183 pack f f f;
#X obj 708 141 *;
#X obj 763 96 t b f;
#X obj 719 54 t f f;
#X obj 473 141 spigot;
#X obj 506 120 *;
#X obj 549 96 t b f;
#X obj 473 183 pack f f f;
#X obj 538 141 *;
#X obj 593 96 t b f;
#X obj 549 54 t f f;
#X obj 303 141 spigot;
#X obj 336 120 *;
#X obj 379 96 t b f;
#X obj 303 183 pack f f f;
#X obj 368 141 *;
#X obj 423 96 t b f;
#X obj 379 54 t f f;
#X obj 719 75 >= 4;
#X obj 763 75 != 4;
#X obj 676 33 >= 4;
#X obj 549 75 >= 5;
#X obj 593 75 != 5;
#X obj 506 33 >= 5;
#X obj 336 33 >= 6;
#X obj 379 75 >= 6;
#X obj 423 75 != 6;
#X obj 133 141 spigot;
#X obj 166 120 *;
#X obj 209 96 t b f;
#X obj 133 183 pack f f f;
#X obj 198 141 *;
#X obj 253 96 t b f;
#X obj 209 54 t f f;
#X obj 166 33 >= 7;
#X obj 209 75 >= 7;
#X obj 253 75 != 7;
#X obj 133 359 pack f f f f;
#X obj 217 288 + 1;
#X msg 179 333 0;
#X obj 199 162 r \$1-nbx-\$2-\$3-7;
#X obj 369 162 r \$1-nbx-\$2-\$3-6;
#X obj 539 162 r \$1-nbx-\$2-\$3-5;
#X obj 709 162 r \$1-nbx-\$2-\$3-4;
#X obj 879 162 r \$1-nbx-\$2-\$3-3;
#X obj 1049 162 r \$1-nbx-\$2-\$3-2;
#X obj 1219 162 r \$1-nbx-\$2-\$3-1;
#X obj 198 120 r \$1-vsl-\$2-\$3-7;
#X obj 368 120 r \$1-vsl-\$2-\$3-6;
#X obj 538 120 r \$1-vsl-\$2-\$3-5;
#X obj 708 120 r \$1-vsl-\$2-\$3-4;
#X obj 878 120 r \$1-vsl-\$2-\$3-3;
#X obj 1048 120 r \$1-vsl-\$2-\$3-2;
#X obj 1218 120 r \$1-vsl-\$2-\$3-1;
#X obj 166 12 r \$1-susnbx-\$2-\$3;
#X obj 336 12 r \$1-susnbx-\$2-\$3;
#X obj 506 12 r \$1-susnbx-\$2-\$3;
#X obj 676 12 r \$1-susnbx-\$2-\$3;
#X obj 846 12 r \$1-susnbx-\$2-\$3;
#X obj 1016 12 r \$1-susnbx-\$2-\$3;
#X obj 1186 12 r \$1-susnbx-\$2-\$3;
#X obj 209 33 r \$1-endnbx-\$2-\$3;
#X obj 379 33 r \$1-endnbx-\$2-\$3;
#X obj 549 33 r \$1-endnbx-\$2-\$3;
#X obj 719 33 r \$1-endnbx-\$2-\$3;
#X obj 889 33 r \$1-endnbx-\$2-\$3;
#X obj 1059 33 r \$1-endnbx-\$2-\$3;
#X obj 1229 33 r \$1-endnbx-\$2-\$3;
#X connect 0 0 14 0;
#X connect 1 0 4 0;
#X connect 2 0 1 1;
#X connect 3 0 2 0;
#X connect 3 1 2 1;
#X connect 4 0 15 0;
#X connect 5 0 4 1;
#X connect 6 0 5 0;
#X connect 6 1 5 1;
#X connect 7 0 12 1;
#X connect 7 0 9 1;
#X connect 8 0 81 0;
#X connect 8 1 11 0;
#X connect 9 0 10 0;
#X connect 9 0 81 3;
#X connect 10 0 9 1;
#X connect 11 0 81 1;
#X connect 11 1 13 0;
#X connect 12 0 9 0;
#X connect 13 0 82 0;
#X connect 13 1 12 0;
#X connect 14 0 71 0;
#X connect 14 1 55 0;
#X connect 14 2 48 0;
#X connect 14 3 41 0;
#X connect 14 4 28 0;
#X connect 14 5 21 0;
#X connect 14 6 1 0;
#X connect 14 7 7 0;
#X connect 14 7 83 0;
#X connect 15 0 8 0;
#X connect 17 0 2 0;
#X connect 18 0 19 0;
#X connect 18 1 20 0;
#X connect 19 0 3 0;
#X connect 20 0 6 0;
#X connect 21 0 24 0;
#X connect 22 0 21 1;
#X connect 23 0 22 0;
#X connect 23 1 22 1;
#X connect 24 0 15 0;
#X connect 25 0 24 1;
#X connect 26 0 25 0;
#X connect 26 1 25 1;
#X connect 27 0 36 0;
#X connect 27 1 37 0;
#X connect 28 0 31 0;
#X connect 29 0 28 1;
#X connect 30 0 29 0;
#X connect 30 1 29 1;
#X connect 31 0 15 0;
#X connect 32 0 31 1;
#X connect 33 0 32 0;
#X connect 33 1 32 1;
#X connect 34 0 38 0;
#X connect 34 1 39 0;
#X connect 35 0 22 0;
#X connect 36 0 23 0;
#X connect 37 0 26 0;
#X connect 38 0 30 0;
#X connect 39 0 33 0;
#X connect 40 0 29 0;
#X connect 41 0 44 0;
#X connect 42 0 41 1;
#X connect 43 0 42 0;
#X connect 43 1 42 1;
#X connect 44 0 15 0;
#X connect 45 0 44 1;
#X connect 46 0 45 0;
#X connect 46 1 45 1;
#X connect 47 0 62 0;
#X connect 47 1 63 0;
#X connect 48 0 51 0;
#X connect 49 0 48 1;
#X connect 50 0 49 0;
#X connect 50 1 49 1;
#X connect 51 0 15 0;
#X connect 52 0 51 1;
#X connect 53 0 52 0;
#X connect 53 1 52 1;
#X connect 54 0 65 0;
#X connect 54 1 66 0;
#X connect 55 0 58 0;
#X connect 56 0 55 1;
#X connect 57 0 56 0;
#X connect 57 1 56 1;
#X connect 58 0 15 0;
#X connect 59 0 58 1;
#X connect 60 0 59 0;
#X connect 60 1 59 1;
#X connect 61 0 69 0;
#X connect 61 1 70 0;
#X connect 62 0 43 0;
#X connect 63 0 46 0;
#X connect 64 0 42 0;
#X connect 65 0 50 0;
#X connect 66 0 53 0;
#X connect 67 0 49 0;
#X connect 68 0 56 0;
#X connect 69 0 57 0;
#X connect 70 0 60 0;
#X connect 71 0 74 0;
#X connect 72 0 71 1;
#X connect 73 0 72 0;
#X connect 73 1 72 1;
#X connect 74 0 15 0;
#X connect 75 0 74 1;
#X connect 76 0 75 0;
#X connect 76 1 75 1;
#X connect 77 0 79 0;
#X connect 77 1 80 0;
#X connect 78 0 72 0;
#X connect 79 0 73 0;
#X connect 80 0 76 0;
#X connect 81 0 16 0;
#X connect 82 0 12 1;
#X connect 83 0 81 2;
#X connect 84 0 74 2;
#X connect 85 0 58 2;
#X connect 86 0 51 2;
#X connect 87 0 44 2;
#X connect 88 0 31 2;
#X connect 89 0 24 2;
#X connect 90 0 4 2;
#X connect 91 0 75 0;
#X connect 92 0 59 0;
#X connect 93 0 52 0;
#X connect 94 0 45 0;
#X connect 95 0 32 0;
#X connect 96 0 25 0;
#X connect 97 0 5 0;
#X connect 98 0 78 0;
#X connect 99 0 68 0;
#X connect 100 0 67 0;
#X connect 101 0 64 0;
#X connect 102 0 40 0;
#X connect 103 0 35 0;
#X connect 104 0 17 0;
#X connect 105 0 77 0;
#X connect 106 0 61 0;
#X connect 107 0 54 0;
#X connect 108 0 47 0;
#X connect 109 0 34 0;
#X connect 110 0 27 0;
#X connect 111 0 18 0;
