#N canvas 1065 113 439 426 10;
#X obj 27 33 unpack f f;
#X obj 27 54 mtof;
#X obj 12 372 *~;
#X obj 12 393 outlet~;
#X obj 27 12 inlet;
#X obj 302 311 t b b;
#X obj 362 311 t b b;
#X obj 148 148 t b b;
#X obj 208 148 t b b;
#X obj 12 141 sig~ 2;
#X obj 12 162 pow~;
#X obj 12 183 *~;
#X obj 77 80 t b b;
#X obj 137 80 t b b;
#X obj 77 148 *~ 2;
#X obj 137 101 off \$1 1;
#X obj 77 101 on \$1 1;
#X obj 208 169 off \$1 2;
#X obj 148 169 on \$1 2;
#X obj 302 332 on \$1 3;
#X obj 362 332 off \$1 3;
#X obj 148 195 curve~;
#X obj 77 127 curve~;
#X obj 302 358 curve~;
#X obj 222 316 pack f \$1;
#X obj 222 275 r \$1-set;
#X obj 12 351 tabread4~;
#X obj 148 284 samphold~;
#X obj 148 258 *~ 259;
#X obj 12 277 *~ 256;
#X obj 12 298 +~;
#X obj 12 325 +~ 1;
#X obj 148 216 *~ 127;
#X obj 12 245 phasor~;
#X obj 148 237 tabread~ \$1-steps;
#X obj 222 296 + 1;
#X msg 222 337 set \$2-\$1;
#X obj 270 47 t f f;
#X obj 270 68 > 0;
#X obj 297 68 s \$0-vel;
#X obj 270 131 s \$0-non;
#X obj 289 110 s \$0-nof;
#X obj 77 59 r \$0-non;
#X obj 137 59 r \$0-nof;
#X obj 148 127 r \$0-non;
#X obj 208 127 r \$0-nof;
#X obj 302 290 r \$0-non;
#X obj 362 290 r \$0-nof;
#X obj 270 89 sel 1 0;
#X connect 0 0 1 0;
#X connect 0 1 37 0;
#X connect 1 0 11 1;
#X connect 2 0 3 0;
#X connect 4 0 0 0;
#X connect 5 0 19 0;
#X connect 5 1 23 1;
#X connect 6 0 20 0;
#X connect 6 1 23 1;
#X connect 7 0 18 0;
#X connect 7 1 21 1;
#X connect 8 0 17 0;
#X connect 8 1 21 1;
#X connect 9 0 10 0;
#X connect 10 0 11 0;
#X connect 11 0 33 0;
#X connect 12 0 16 0;
#X connect 12 1 22 1;
#X connect 13 0 15 0;
#X connect 13 1 22 1;
#X connect 14 0 10 1;
#X connect 15 0 22 0;
#X connect 16 0 22 0;
#X connect 17 0 21 0;
#X connect 18 0 21 0;
#X connect 19 0 23 0;
#X connect 20 0 23 0;
#X connect 21 0 32 0;
#X connect 22 0 14 0;
#X connect 23 0 2 1;
#X connect 24 0 36 0;
#X connect 25 0 35 0;
#X connect 26 0 2 0;
#X connect 27 0 30 1;
#X connect 28 0 27 0;
#X connect 29 0 30 0;
#X connect 30 0 31 0;
#X connect 31 0 26 0;
#X connect 32 0 34 0;
#X connect 33 0 27 1;
#X connect 33 0 29 0;
#X connect 34 0 28 0;
#X connect 35 0 24 0;
#X connect 36 0 26 0;
#X connect 37 0 38 0;
#X connect 37 1 39 0;
#X connect 38 0 48 0;
#X connect 42 0 12 0;
#X connect 43 0 13 0;
#X connect 44 0 7 0;
#X connect 45 0 8 0;
#X connect 46 0 5 0;
#X connect 47 0 6 0;
#X connect 48 0 40 0;
#X connect 48 1 41 0;
